<svg xmlns="http://www.w3.org/2000/svg" version="1.1" width="400" height="200" style="">
<path fill="#e884c7" d="M18.5,112.88l0-15.12l-2.38-0.56l0-1.54l5.18-0.14l3.22,0c3.5,0,6.02,1.54,6.02,4.9c0,2.52-1.288,3.948-3.64,4.536c2.94,0.672,4.34,2.324,4.34,4.564c0,3.92-2.52,5.6-7.14,5.6l-7.98,0l0-1.68z M21.3,103.92l2.1,0c2.52,0,4.2-0.98,4.2-3.22c0-1.96-1.4-2.94-3.22-2.94l-3.08,0l0,6.16z M21.3,112.88l2.94,0c2.66,0,4.06-1.12,4.06-3.22c0-2.8-1.82-3.64-4.9-3.64l-2.1,0l0,6.86z M36.8008,104.62l-0.14-3.5s3.08-1.12,5.46-1.12c3.248,0,5.18,1.12,5.18,4.34l0,8.54l2.24,0.56l0,1.54l-4.34,0.14l-0.588-1.96c-0.952,0.952-2.632,2.24-4.592,2.24c-2.66,0-4.2-1.54-4.2-4.2c0-3.22,2.52-4.34,6.44-4.34l2.24,0l0-2.24c0-1.68-0.98-2.52-2.66-2.52s-2.828,0.42-2.828,0.42l-0.392,2.1l-1.82,0z M44.5008,108.68l-1.96,0c-2.8,0-3.864,0.7-3.864,2.38c0,1.26,0.784,2.1,2.044,2.1c2.1,0,3.78-2.24,3.78-2.24l0-2.24z M60.5616,105.88l2.1-3.528l-1.26-0.392l0-1.54l6.16-0.14l0,1.68l-1.988,0.336l-0.028,0l-2.884,4.284l3.612,6.3l0.028,0l2.1,0.7l0,1.54l-3.78,0l-4.004-7.14l-2.436,0l0,4.9l1.82,0.7l0,1.54l-7,0l0-1.54l2.38-0.7l0-17.08l-2.38-0.56l0-1.54l5.18-0.14l0,12.32l2.38,0z M84.1824,108.12l-9.66,0c0,3.08,1.652,5.04,4.06,5.04c2.8,0,4.704-1.54,4.704-1.54l0.98,1.456s-2.604,2.324-5.964,2.324c-4.48,0-6.72-2.94-6.72-7.56c0-4.48,2.8-7.84,6.86-7.84s5.88,2.38,5.88,6.58c0,0.7-0.14,1.484-0.14,1.54z M74.6344,106.02l6.72,0c0-2.1-0.812-3.836-3.052-3.836s-3.5,1.736-3.668,3.836z M93.2432,100.28l0.252,2.044c0.7-0.784,2.324-2.324,4.228-2.324c1.4,0,2.52,0.42,2.52,0.42l-0.14,4.06l-1.82,0l-0.42-2.1c-2.1,0-3.444,1.372-4.06,2.184l0,8.316l2.8,0.7l0,1.54l-7.98,0l0-1.54l2.38-0.7l0-10.36l-2.38-0.56l0-1.54z M105.692,110.64l0.308,2.408s0.84,0.252,2.352,0.252c1.68,0,3.164-0.476,3.164-2.212c0-3.024-7.812-1.624-7.812-6.72c0-2.912,2.24-4.368,5.124-4.368c2.212,0,4.788,0.84,4.788,0.84l-0.084,3.78l-1.82,0l-0.448-2.184s-0.868-0.336-2.268-0.336c-1.428,0-2.492,0.448-2.492,1.876c0,2.996,7.812,1.848,7.812,6.636c0,3.22-2.8,4.788-6.16,4.788c-2.576,0-4.424-0.616-4.424-0.616l0-4.144l1.96,0z"/><path fill="#65aadb" d="M123.3649640625,94.7021484375q-0.0341796875-0.4169921875,0.0546875-0.724609375t0.35546875-0.505859375t0.8544921875-0.1982421875l2.201171875,0q0.451171875,0,1.1826171875,0.0478515625t1.572265625,0.1435546875t1.6748046875,0.2939453125t1.5244140625,0.4921875t1.12109375,0.724609375t0.4306640625,1.0185546875q0,0.833984375-0.4853515625,1.5654296875t-1.216796875,1.3193359375t-1.544921875,1.0458984375t-1.4560546875,0.8271484375q2.54296875,0.560546875,3.978515625,2.32421875t1.435546875,4.40234375q0,1.39453125-0.533203125,2.7548828125t-1.4560546875,2.4541015625t-2.1875,1.763671875t-2.7138671875,0.669921875q-0.19140625,0-0.4306640625-0.041015625t-0.4375-0.1298828125t-0.341796875-0.2529296875t-0.1435546875-0.423828125q0-1.203125,1.298828125-1.203125q0.21875,0,0.5126953125,0.0615234375t0.4580078125,0.2529296875q0.751953125-0.314453125,1.3740234375-0.998046875t1.052734375-1.5244140625t0.669921875-1.763671875t0.2392578125-1.6748046875q0-0.90234375-0.2666015625-1.8388671875t-0.7724609375-1.736328125t-1.244140625-1.3466796875t-1.6953125-0.68359375q-0.24609375-0.02734375-0.5400390625-0.041015625l-0.587890625-0.02734375t-0.57421875-0.08203125t-0.4853515625-0.21875q0.109375,2.26953125,0.2802734375,4.525390625t0.4580078125,4.525390625q0.109375,0.109375,0.150390625,0.3212890625t0.068359375,0.451171875t0.02734375,0.4580078125l0,0.369140625q0,0.24609375-0.1640625,0.4033203125t-0.3896484375,0.2529296875t-0.478515625,0.123046875t-0.4443359375,0.02734375q-0.615234375,0-0.943359375-0.1640625t-0.46484375-0.478515625t-0.177734375-0.7177734375t-0.068359375-0.8818359375q-0.369140625-3.814453125-0.533203125-7.546875t-0.1640625-7.546875q0-0.451171875-0.0341796875-0.8681640625z M125.887425,94.12109375q0,1.681640625,0.109375,3.3701171875t0.19140625,3.3701171875q0.615234375-0.369140625,1.61328125-0.8681640625t1.9345703125-1.1005859375t1.6064453125-1.326171875t0.669921875-1.572265625q0-0.669921875-0.79296875-1.0185546875t-1.845703125-0.51953125t-2.0576171875-0.2119140625t-1.4287109375-0.123046875z M137.83213203125,108.900390625q0-0.9296875,0.2529296875-1.791015625t0.7587890625-1.5380859375t1.2646484375-1.080078125t1.7568359375-0.4033203125q0.615234375,0,1.3603515625,0.1845703125t1.4013671875,0.546875t1.09375,0.9228515625t0.4375,1.28515625q0,0.341796875-0.1162109375,0.51953125t-0.4716796875,0.177734375l-0.150390625-0.02734375q0.396484375,1.06640625,0.68359375,2.1875t0.560546875,2.2421875q0.109375,0.21875,0.1640625,0.3896484375t0.0546875,0.3349609375q0,0.21875-0.123046875,0.3623046875t-0.3212890625,0.2119140625t-0.41015625,0.095703125t-0.3759765625,0.02734375q-0.587890625,0-0.8818359375-0.205078125t-0.423828125-0.560546875t-0.1572265625-0.7998046875t-0.109375-0.8955078125q-0.1640625,0.533203125-0.4306640625,1.0390625t-0.62890625,0.9091796875t-0.8544921875,0.642578125t-1.107421875,0.2392578125q-0.90234375,0-1.517578125-0.51953125t-0.9912109375-1.2783203125t-0.546875-1.6201171875t-0.1708984375-1.599609375z M139.77353828125,108.708984375q0,0.505859375,0.068359375,1.06640625t0.2255859375,1.107421875t0.4033203125,1.0322265625t0.615234375,0.8544921875q0.669921875-0.724609375,0.9912109375-1.763671875t0.57421875-2.0029296875t0.57421875-1.654296875t0.9912109375-0.6904296875q0.423828125,0,0.7109375,0.150390625q-0.13671875-0.341796875-0.451171875-0.6630859375t-0.7041015625-0.587890625t-0.806640625-0.4375t-0.7861328125-0.1708984375q-0.109375,0-0.2529296875,0.0341796875t-0.2255859375,0.0068359375q-0.560546875,0.1640625-0.9228515625,0.5673828125t-0.587890625,0.9501953125t-0.3212890625,1.12109375t-0.095703125,1.080078125z M149.6811359375,114.451171875l0.287109375-0.341796875q-0.0546875-2.296875-0.123046875-4.580078125t-0.068359375-4.5390625q0-2.802734375,0.3349609375-5.4208984375t0.6630859375-5.3662109375q0.02734375-0.1640625,0.1572265625-0.2666015625t0.3212890625-0.1708984375t0.3896484375-0.095703125t0.3623046875-0.02734375q0.21875,0,0.546875,0.08203125t0.65625,0.478515625q0,0.13671875,0.0205078125,0.2392578125t0.0205078125,0.2392578125q0,1.0390625-0.2802734375,2.228515625t-0.3759765625,2.283203125q-0.109375,1.33984375-0.150390625,2.65234375t-0.041015625,2.666015625l0.02734375,1.203125q0.2734375-0.341796875,0.779296875-0.875t1.09375-1.0322265625t1.17578125-0.8544921875t1.06640625-0.35546875q0.724609375,0,1.0048828125,0.41015625t0.2802734375,1.080078125q0,0.615234375-0.2666015625,1.28515625t-0.697265625,1.3056640625t-0.9775390625,1.1416015625t-1.080078125,0.751953125q0.724609375,0.90234375,1.4833984375,1.72265625t1.6611328125,1.544921875l0,0.314453125q-0.02734375,0.13671875-0.1708984375,0.205078125t-0.314453125,0.109375t-0.3349609375,0.0615234375t-0.2734375,0.0205078125q-0.669921875,0-1.2919921875-0.396484375t-1.162109375-0.970703125t-1.0185546875-1.216796875t-0.875-1.12109375q0.08203125,1.572265625,0.1845703125,3.1376953125t0.1025390625,3.1376953125q0,0.19140625-0.1708984375,0.3212890625t-0.396484375,0.1982421875t-0.4580078125,0.095703125t-0.3828125,0.02734375q-0.806640625,0-1.1416015625-0.2939453125t-0.5673828125-1.0185546875z M152.4838703125,108.01171875q0.341796875,0,0.8134765625-0.2939453125t0.9775390625-0.7314453125t0.943359375-0.9228515625t0.7041015625-0.9228515625t0.2666015625-0.7041015625t-0.369140625-0.2392578125q-0.13671875,0-0.560546875,0.396484375t-0.943359375,0.970703125t-1.0390625,1.244140625t-0.79296875,1.203125z M160.75084296875,109.4609375q0-0.95703125,0.2119140625-2.255859375t0.7177734375-2.4609375t1.3330078125-1.9755859375t2.0849609375-0.8134765625q1.17578125,0,1.763671875,0.6767578125t0.587890625,1.8251953125q0,0.751953125-0.2802734375,1.6474609375t-0.7998046875,1.6953125t-1.23046875,1.3330078125t-1.5859375,0.533203125l-0.35546875-0.02734375q0,0.369140625,0.109375,0.9912109375t0.3212890625,1.2373046875t0.546875,1.080078125t0.8134765625,0.46484375q0.697265625,0,1.33984375-0.560546875t1.216796875-1.244140625t1.06640625-1.244140625t0.90234375-0.560546875q0.21875,0,0.451171875,0.068359375t0.259765625,0.3828125q0,0.19140625-0.1025390625,0.314453125t-0.1845703125,0.2734375q-0.423828125,0.724609375-0.9228515625,1.380859375t-1.1279296875,1.189453125t-1.3740234375,0.8408203125t-1.6474609375,0.3076171875q-1.17578125,0-1.955078125-0.4169921875t-1.2578125-1.12109375t-0.6904296875-1.626953125t-0.2119140625-1.9345703125z M163.19810859375,108.421875l0.3828125,0.341796875q0.2734375,0.24609375,0.546875,0.109375t0.4921875-0.4990234375t0.4033203125-0.8955078125t0.328125-1.09375t0.2119140625-1.09375t0.068359375-0.888671875l0-0.46484375t-0.041015625-0.4921875t-0.1435546875-0.3896484375t-0.3212890625-0.1982421875q-0.068359375-0.013671875-0.123046875-0.013671875q-0.46484375,0-0.79296875,0.587890625q-0.35546875,0.65625-0.57421875,1.5927734375t-0.314453125,1.9208984375t-0.123046875,1.4765625z"/></svg>